<svg xmlns="http://www.w3.org/2000/svg" xmlns:xlink="http://www.w3.org/1999/xlink" viewBox="0 0 504 216"><defs><style>.cls-1,.cls-11{fill:none;}.cls-12,.cls-2,.cls-21{fill:#fff;}.cls-3{clip-path:url(#clip-path);}.cls-4{fill:#ea3344;}.cls-10,.cls-11,.cls-4,.cls-5,.cls-6,.cls-7,.cls-8,.cls-9{stroke:#000;stroke-linejoin:round;}.cls-5{fill:#ef8f34;}.cls-6{fill:#f1c04c;}.cls-7{fill:#95c03a;}.cls-8{fill:#57be7d;}.cls-9{fill:#008049;}.cls-10{stroke-width:0.5px;}.cls-12,.cls-21{font-size:14.6px;font-family:AdobeClean-BoldSemiCn, Adobe Clean;font-weight:700;}.cls-13{letter-spacing:-0.01em;}.cls-14{letter-spacing:0.01em;}.cls-15{letter-spacing:0.01em;}.cls-16{letter-spacing:0em;}.cls-17{letter-spacing:0.02em;}.cls-18{letter-spacing:0em;}.cls-19{letter-spacing:0.01em;}.cls-20{letter-spacing:0.02em;}.cls-21{letter-spacing:-0.02em;}</style><clipPath id="clip-path"><rect class="cls-1" x="63" y="21.6" width="390.6" height="172.8"/></clipPath></defs><title>Asset 1</title><g id="Layer_2" data-name="Layer 2"><g id="Layer_1-2" data-name="Layer 1"><g id="patch_1" data-name="patch 1"><path class="cls-2" d="M0,216H504V0H0Z"/></g><path class="cls-2" d="M63,194.4H453.6V21.6H63Z"/><g class="cls-3"><path class="cls-4" d="M63,194.4h9.31V159.84H63Z"/></g><g class="cls-3"><path class="cls-4" d="M63,151.2H81.42V116.64H63Z"/></g><g class="cls-3"><path class="cls-4" d="M63,108H75V73.44H63Z"/></g><g class="cls-3"><path class="cls-4" d="M63,64.8h37.06V30.24H63Z"/></g><g class="cls-3"><path class="cls-5" d="M72.31,194.4H86.63V159.84H72.31Z"/></g><g class="cls-3"><path class="cls-5" d="M81.42,151.2h21.44V116.64H81.42Z"/></g><g class="cls-3"><path class="cls-5" d="M75,108H93.27V73.44H75Z"/></g><g class="cls-3"><path class="cls-5" d="M100.06,64.8h30.4V30.24h-30.4Z"/></g><g class="cls-3"><path class="cls-6" d="M86.63,194.4h16.83V159.84H86.63Z"/></g><g class="cls-3"><path class="cls-6" d="M102.86,151.2h27.47V116.64H102.86Z"/></g><g class="cls-3"><path class="cls-6" d="M93.27,108h25.9V73.44H93.27Z"/></g><g class="cls-3"><path class="cls-6" d="M130.46,64.8h30.4V30.24h-30.4Z"/></g><g class="cls-3"><path class="cls-7" d="M103.46,194.4h41.89V159.84H103.46Z"/></g><g class="cls-3"><path class="cls-7" d="M130.33,151.2H190V116.64H130.33Z"/></g><g class="cls-3"><path class="cls-7" d="M119.17,108h51.05V73.44h-51Z"/></g><g class="cls-3"><path class="cls-7" d="M160.86,64.8h45.8V30.24h-45.8Z"/></g><g class="cls-3"><path class="cls-8" d="M145.35,194.4h121V159.84h-121Z"/></g><g class="cls-3"><path class="cls-8" d="M190,151.2H317.59V116.64H190Z"/></g><g class="cls-3"><path class="cls-8" d="M170.22,108h99.2V73.44h-99.2Z"/></g><g class="cls-3"><path class="cls-8" d="M206.66,64.8h99.11V30.24H206.66Z"/></g><g class="cls-3"><path class="cls-9" d="M266.36,194.4H453.6V159.84H266.36Z"/></g><g class="cls-3"><path class="cls-9" d="M317.59,151.2h136V116.64h-136Z"/></g><g class="cls-3"><path class="cls-9" d="M269.42,108H453.6V73.44H269.42Z"/></g><g class="cls-3"><path class="cls-9" d="M305.77,64.8H453.6V30.24H305.77Z"/></g><g id="xtick_1" data-name="xtick 1"><g id="line2d_1" data-name="line2d 1"><path id="m93b0483c22" class="cls-10" d="M63,194.4v-4"/></g><g id="text_1" data-name="text 1"><path id="BitstreamVeraSans-Roman-30" d="M58.07,199.55a1.48,1.48,0,0,0-1.38.9,8.15,8.15,0,0,0,0,5.4,1.51,1.51,0,0,0,2.76,0,8.15,8.15,0,0,0,0-5.4,1.48,1.48,0,0,0-1.38-.9m0-.94a2.51,2.51,0,0,1,2.24,1.17,7.69,7.69,0,0,1,0,6.75,2.53,2.53,0,0,1-2.24,1.16,2.55,2.55,0,0,1-2.25-1.16,7.69,7.69,0,0,1,0-6.75,2.54,2.54,0,0,1,2.25-1.17"/><path id="BitstreamVeraSans-Roman-2e" d="M63.17,206h1.24v1.49H63.17Z"/><path id="BitstreamVeraSans-Roman-30-2" data-name="BitstreamVeraSans-Roman-30" d="M69.52,199.55a1.48,1.48,0,0,0-1.38.9,8.15,8.15,0,0,0,0,5.4,1.51,1.51,0,0,0,2.76,0,8.15,8.15,0,0,0,0-5.4,1.48,1.48,0,0,0-1.38-.9m0-.94a2.51,2.51,0,0,1,2.24,1.17,7.69,7.69,0,0,1,0,6.75,2.53,2.53,0,0,1-2.24,1.16,2.55,2.55,0,0,1-2.25-1.16,7.69,7.69,0,0,1,0-6.75,2.54,2.54,0,0,1,2.25-1.17"/></g></g><g id="line2d_3" data-name="line2d 3"><path id="m93b0483c22-2" data-name="m93b0483c22" class="cls-10" d="M141.12,194.4v-4"/></g><g id="text_2" data-name="text 2"><path id="BitstreamVeraSans-Roman-30-3" data-name="BitstreamVeraSans-Roman-30" d="M136.39,199.55a1.48,1.48,0,0,0-1.38.9,8.15,8.15,0,0,0,0,5.4,1.51,1.51,0,0,0,2.76,0,8.15,8.15,0,0,0,0-5.4,1.48,1.48,0,0,0-1.38-.9m0-.94a2.54,2.54,0,0,1,2.25,1.17,7.78,7.78,0,0,1,0,6.75,2.76,2.76,0,0,1-4.5,0,7.78,7.78,0,0,1,0-6.75,2.54,2.54,0,0,1,2.25-1.17"/><path id="BitstreamVeraSans-Roman-2e-2" data-name="BitstreamVeraSans-Roman-2e" d="M141.49,206h1.24v1.49h-1.24Z"/><path id="BitstreamVeraSans-Roman-32" d="M146.33,206.52h4.13v1H144.9v-1c.45-.46,1.06-1.09,1.84-1.87s1.26-1.29,1.46-1.52a5.13,5.13,0,0,0,.79-1.08,1.77,1.77,0,0,0,.23-.87,1.43,1.43,0,0,0-.49-1.13,1.79,1.79,0,0,0-1.27-.44,3.92,3.92,0,0,0-1.18.19,7.39,7.39,0,0,0-1.32.59v-1.2a9.79,9.79,0,0,1,1.34-.43,4.82,4.82,0,0,1,1.13-.15,3.28,3.28,0,0,1,2.17.68,2.26,2.26,0,0,1,.81,1.82,2.69,2.69,0,0,1-.2,1,5.11,5.11,0,0,1-.74,1.14c-.09.11-.41.44-.93,1l-2.21,2.27"/></g><g id="line2d_5" data-name="line2d 5"><path id="m93b0483c22-3" data-name="m93b0483c22" class="cls-10" d="M219.24,194.4v-4"/></g><g id="text_3" data-name="text 3"><path id="BitstreamVeraSans-Roman-30-4" data-name="BitstreamVeraSans-Roman-30" d="M214.24,199.55a1.48,1.48,0,0,0-1.37.9,8.15,8.15,0,0,0,0,5.4,1.48,1.48,0,0,0,1.37.9,1.46,1.46,0,0,0,1.38-.9,8,8,0,0,0,0-5.4,1.46,1.46,0,0,0-1.38-.9m0-.94a2.53,2.53,0,0,1,2.25,1.17,7.69,7.69,0,0,1,0,6.75,2.75,2.75,0,0,1-4.49,0,7.69,7.69,0,0,1,0-6.75,2.52,2.52,0,0,1,2.24-1.17"/><path id="BitstreamVeraSans-Roman-2e-3" data-name="BitstreamVeraSans-Roman-2e" d="M219.35,206h1.24v1.49h-1.24Z"/><path id="BitstreamVeraSans-Roman-34" d="M226.42,199.8l-3,4.67h3Zm-.32-1h1.49v5.7h1.25v1h-1.25v2.06h-1.17v-2.06h-3.95v-1.15Z"/></g><g id="line2d_7" data-name="line2d 7"><path id="m93b0483c22-4" data-name="m93b0483c22" class="cls-10" d="M297.36,194.4v-4"/></g><g id="text_4" data-name="text 4"><path id="BitstreamVeraSans-Roman-30-5" data-name="BitstreamVeraSans-Roman-30" d="M292.41,199.55a1.48,1.48,0,0,0-1.38.9,8.15,8.15,0,0,0,0,5.4,1.51,1.51,0,0,0,2.76,0,8.15,8.15,0,0,0,0-5.4,1.48,1.48,0,0,0-1.38-.9m0-.94a2.51,2.51,0,0,1,2.24,1.17,7.69,7.69,0,0,1,0,6.75,2.53,2.53,0,0,1-2.24,1.16,2.55,2.55,0,0,1-2.25-1.16,7.69,7.69,0,0,1,0-6.75,2.54,2.54,0,0,1,2.25-1.17"/><path id="BitstreamVeraSans-Roman-2e-4" data-name="BitstreamVeraSans-Roman-2e" d="M297.51,206h1.24v1.49h-1.24Z"/><path id="BitstreamVeraSans-Roman-36" d="M304,202.67a1.58,1.58,0,0,0-1.26.55,2.6,2.6,0,0,0,0,3,1.72,1.72,0,0,0,2.52,0,2.6,2.6,0,0,0,0-3,1.58,1.58,0,0,0-1.26-.55m2.35-3.71V200a4.62,4.62,0,0,0-.9-.32,3.47,3.47,0,0,0-.9-.11,2.13,2.13,0,0,0-1.79.79,4.27,4.27,0,0,0-.7,2.39,2.37,2.37,0,0,1,.86-.78,2.47,2.47,0,0,1,1.15-.27,2.74,2.74,0,0,1,2.09.8,3.41,3.41,0,0,1,0,4.34,2.83,2.83,0,0,1-2.12.81,2.66,2.66,0,0,1-2.32-1.16,6,6,0,0,1-.8-3.38,5.17,5.17,0,0,1,1-3.3,3.2,3.2,0,0,1,2.65-1.24,4.73,4.73,0,0,1,.9.09,7.89,7.89,0,0,1,.94.26"/></g><g id="line2d_9" data-name="line2d 9"><path id="m93b0483c22-5" data-name="m93b0483c22" class="cls-10" d="M375.48,194.4v-4"/></g><g id="text_5" data-name="text 5"><path id="BitstreamVeraSans-Roman-30-6" data-name="BitstreamVeraSans-Roman-30" d="M370.56,199.55a1.48,1.48,0,0,0-1.38.9,8.15,8.15,0,0,0,0,5.4,1.51,1.51,0,0,0,2.76,0,8.15,8.15,0,0,0,0-5.4,1.48,1.48,0,0,0-1.38-.9m0-.94a2.54,2.54,0,0,1,2.25,1.17,7.78,7.78,0,0,1,0,6.75,2.76,2.76,0,0,1-4.5,0,7.78,7.78,0,0,1,0-6.75,2.54,2.54,0,0,1,2.25-1.17"/><path id="BitstreamVeraSans-Roman-2e-5" data-name="BitstreamVeraSans-Roman-2e" d="M375.66,206h1.24v1.49h-1.24Z"/><path id="BitstreamVeraSans-Roman-38" d="M382,203.36a1.86,1.86,0,0,0-1.33.45,1.65,1.65,0,0,0-.48,1.25,1.63,1.63,0,0,0,.48,1.24,1.86,1.86,0,0,0,1.33.45,1.9,1.9,0,0,0,1.33-.45,1.85,1.85,0,0,0,0-2.49,1.88,1.88,0,0,0-1.33-.45m-1.19-.5a2.09,2.09,0,0,1-1.18-.71,1.92,1.92,0,0,1-.43-1.27,2,2,0,0,1,.75-1.66,3.75,3.75,0,0,1,4.1,0,2.05,2.05,0,0,1,.74,1.66,2,2,0,0,1-.42,1.27,2.13,2.13,0,0,1-1.18.71,2.32,2.32,0,0,1,1.33.78,2.16,2.16,0,0,1,.48,1.42,2.44,2.44,0,0,1-.78,1.95,4,4,0,0,1-4.45,0,2.47,2.47,0,0,1-.77-1.95,2.16,2.16,0,0,1,.48-1.42,2.32,2.32,0,0,1,1.33-.78m-.43-1.87a1.36,1.36,0,0,0,.42,1.06,1.78,1.78,0,0,0,1.2.38,1.75,1.75,0,0,0,1.19-.38,1.52,1.52,0,0,0,0-2.12,1.75,1.75,0,0,0-1.19-.38,1.78,1.78,0,0,0-1.2.38,1.36,1.36,0,0,0-.42,1.06"/></g><g id="line2d_11" data-name="line2d 11"><path id="m93b0483c22-6" data-name="m93b0483c22" class="cls-10" d="M453.6,194.4v-4"/></g><g id="text_6" data-name="text 6"><path id="BitstreamVeraSans-Roman-31" d="M446.6,206.52h1.94v-6.67l-2.11.42v-1.08l2.1-.42h1.18v7.75h1.93v1h-5Z"/><path id="BitstreamVeraSans-Roman-2e-6" data-name="BitstreamVeraSans-Roman-2e" d="M454,206h1.24v1.49H454Z"/><path id="BitstreamVeraSans-Roman-30-7" data-name="BitstreamVeraSans-Roman-30" d="M460.38,199.55a1.48,1.48,0,0,0-1.38.9,8.15,8.15,0,0,0,0,5.4,1.51,1.51,0,0,0,2.76,0,8.15,8.15,0,0,0,0-5.4,1.48,1.48,0,0,0-1.38-.9m0-.94a2.54,2.54,0,0,1,2.25,1.17,7.78,7.78,0,0,1,0,6.75,2.76,2.76,0,0,1-4.5,0,7.78,7.78,0,0,1,0-6.75,2.54,2.54,0,0,1,2.25-1.17"/></g><g id="ytick_1" data-name="ytick 1"><g id="text_8" data-name="text 8"><path id="BitstreamVeraSans-Roman-64" d="M43.39,174.86v-3.55h1.08v9.12H43.39v-1a2.23,2.23,0,0,1-.85.87,2.57,2.57,0,0,1-1.25.28,2.35,2.35,0,0,1-1.94-.95,4.58,4.58,0,0,1,0-5,2.37,2.37,0,0,1,1.94-.95,2.57,2.57,0,0,1,1.25.29,2.13,2.13,0,0,1,.85.86m-3.67,2.3a3.09,3.09,0,0,0,.49,1.86,1.57,1.57,0,0,0,1.34.68A1.59,1.59,0,0,0,42.9,179a3.79,3.79,0,0,0,0-3.73,1.59,1.59,0,0,0-1.35-.68,1.57,1.57,0,0,0-1.34.68,3.1,3.1,0,0,0-.49,1.87"/><path id="BitstreamVeraSans-Roman-61" d="M49.68,177.13a3.82,3.82,0,0,0-1.81.3,1.09,1.09,0,0,0-.51,1,1.16,1.16,0,0,0,.38.91,1.46,1.46,0,0,0,1,.34,1.78,1.78,0,0,0,1.44-.64,2.5,2.5,0,0,0,.54-1.69v-.24Zm2.15-.44v3.74H50.75v-1a2.42,2.42,0,0,1-.92.88,2.93,2.93,0,0,1-1.35.28,2.24,2.24,0,0,1-1.6-.56,2,2,0,0,1-.6-1.52,2,2,0,0,1,.74-1.67,3.71,3.71,0,0,1,2.22-.56h1.51v-.11a1.41,1.41,0,0,0-.49-1.15,2.09,2.09,0,0,0-1.37-.41,4.42,4.42,0,0,0-1.1.14,4.31,4.31,0,0,0-1,.4v-1a6.17,6.17,0,0,1,1.15-.34,5.12,5.12,0,0,1,1.09-.12,2.78,2.78,0,0,1,2.12.74,3.14,3.14,0,0,1,.71,2.24"/><path id="BitstreamVeraSans-Roman-79" d="M56.78,181a4,4,0,0,1-.89,1.53,1.77,1.77,0,0,1-1.16.36h-.86V182h.63a1,1,0,0,0,.69-.21,2.61,2.61,0,0,0,.54-1l.2-.49-2.66-6.46h1.15l2,5.13,2.05-5.13h1.14Z"/></g></g><g id="ytick_2" data-name="ytick 2"><g id="text_9" data-name="text 9"><path id="BitstreamVeraSans-Roman-77" d="M28.51,130.67h1.08l1.35,5.12,1.34-5.12h1.27l1.35,5.12,1.34-5.12h1.08l-1.72,6.56H34.33l-1.41-5.38-1.42,5.38H30.23Z"/><path id="BitstreamVeraSans-Roman-65" d="M44.57,133.68v.53h-5a2.5,2.5,0,0,0,.67,1.69,2.3,2.3,0,0,0,1.67.59,4.42,4.42,0,0,0,1.21-.16,5.55,5.55,0,0,0,1.16-.45v1a6.54,6.54,0,0,1-1.19.37,5.74,5.74,0,0,1-1.24.13A3.16,3.16,0,0,1,38.48,134a3.62,3.62,0,0,1,.87-2.55,3.05,3.05,0,0,1,2.35-1,2.73,2.73,0,0,1,2.1.85,3.35,3.35,0,0,1,.77,2.32m-1.08-.32A2,2,0,0,0,43,132a1.66,1.66,0,0,0-1.28-.53,2,2,0,0,0-1.44.51,2.14,2.14,0,0,0-.62,1.44Z"/><path id="BitstreamVeraSans-Roman-65-2" data-name="BitstreamVeraSans-Roman-65" d="M52,133.68v.53H47a2.5,2.5,0,0,0,.67,1.69,2.31,2.31,0,0,0,1.68.59,4.4,4.4,0,0,0,1.2-.16,5.55,5.55,0,0,0,1.16-.45v1a6.54,6.54,0,0,1-1.19.37,5.74,5.74,0,0,1-1.24.13,3.14,3.14,0,0,1-3.4-3.39,3.62,3.62,0,0,1,.87-2.55,3,3,0,0,1,2.34-1,2.7,2.7,0,0,1,2.1.85,3.35,3.35,0,0,1,.77,2.32m-1.08-.32a2.06,2.06,0,0,0-.49-1.41,1.67,1.67,0,0,0-1.28-.53,2,2,0,0,0-1.45.51,2.14,2.14,0,0,0-.62,1.44Z"/><path id="BitstreamVeraSans-Roman-6b" d="M53.68,128.11h1.08v5.39L58,130.67h1.38l-3.48,3.07,3.62,3.49H58.1L54.76,134v3.2H53.68Z"/></g></g><g id="ytick_3" data-name="ytick 3"><g id="text_10" data-name="text 10"><path id="BitstreamVeraSans-Roman-6d" d="M28.4,88.73a2.75,2.75,0,0,1,1-1.07,2.48,2.48,0,0,1,1.32-.35,1.9,1.9,0,0,1,1.59.72,3.28,3.28,0,0,1,.55,2v4H31.75V90.1a2.3,2.3,0,0,0-.34-1.39,1.16,1.16,0,0,0-1-.46,1.65,1.65,0,0,0-1.33.56,2.23,2.23,0,0,0-.49,1.51V94H27.5V90.1a2.41,2.41,0,0,0-.33-1.4,1.21,1.21,0,0,0-1-.45,1.67,1.67,0,0,0-1.32.56,2.24,2.24,0,0,0-.48,1.51V94H23.25V87.47h1.09v1a2.42,2.42,0,0,1,.88-.89,2.47,2.47,0,0,1,1.22-.29,2,2,0,0,1,1.22.36,2.19,2.19,0,0,1,.74,1.06"/><path id="BitstreamVeraSans-Roman-6f" d="M37.52,88.22a1.64,1.64,0,0,0-1.37.68,3.69,3.69,0,0,0,0,3.71,1.72,1.72,0,0,0,2.74,0,3.67,3.67,0,0,0,0-3.7,1.61,1.61,0,0,0-1.37-.69m0-.91a2.78,2.78,0,0,1,2.21.92,4.36,4.36,0,0,1,0,5.06,3.14,3.14,0,0,1-4.42,0,4.4,4.4,0,0,1,0-5.06,2.79,2.79,0,0,1,2.21-.92"/><path id="BitstreamVeraSans-Roman-6e" d="M47.78,90.07v4H46.7V90.1a2.24,2.24,0,0,0-.36-1.39,1.3,1.3,0,0,0-1.09-.46,1.75,1.75,0,0,0-1.38.56,2.14,2.14,0,0,0-.5,1.51V94H42.28V87.47h1.09v1a2.66,2.66,0,0,1,.91-.89,2.49,2.49,0,0,1,1.21-.29,2.09,2.09,0,0,1,1.71.7,3.14,3.14,0,0,1,.58,2.06"/><path id="BitstreamVeraSans-Roman-74" d="M51,85.6v1.87h2.22v.84H51v3.56a1.59,1.59,0,0,0,.22,1,1.25,1.25,0,0,0,.89.23h1.11V94H52.11a2.45,2.45,0,0,1-1.72-.46,2.35,2.35,0,0,1-.48-1.7V88.31h-.79v-.84h.79V85.6Z"/><path id="BitstreamVeraSans-Roman-68" d="M60.09,90.07v4H59V90.1a2.24,2.24,0,0,0-.36-1.39,1.3,1.3,0,0,0-1.09-.46,1.75,1.75,0,0,0-1.38.56,2.14,2.14,0,0,0-.5,1.51V94H54.59V84.91h1.09v3.58a2.66,2.66,0,0,1,.91-.89,2.49,2.49,0,0,1,1.21-.29,2.09,2.09,0,0,1,1.71.7,3.14,3.14,0,0,1,.58,2.06"/></g></g><g id="ytick_4" data-name="ytick 4"><g id="text_11" data-name="text 11"><path id="BitstreamVeraSans-Roman-68-2" data-name="BitstreamVeraSans-Roman-68" d="M17.6,46.87v4H16.52V46.9a2.18,2.18,0,0,0-.37-1.39,1.28,1.28,0,0,0-1.08-.46,1.72,1.72,0,0,0-1.38.56,2.14,2.14,0,0,0-.51,1.51v3.71H12.1V41.71h1.08v3.58a2.75,2.75,0,0,1,.91-.89,2.53,2.53,0,0,1,1.22-.29,2.09,2.09,0,0,1,1.71.7,3.2,3.2,0,0,1,.58,2.06"/><path id="BitstreamVeraSans-Roman-61-2" data-name="BitstreamVeraSans-Roman-61" d="M22.73,47.53a3.82,3.82,0,0,0-1.81.3,1.09,1.09,0,0,0-.51,1,1.16,1.16,0,0,0,.38.91,1.47,1.47,0,0,0,1,.34,1.78,1.78,0,0,0,1.44-.64,2.5,2.5,0,0,0,.54-1.69v-.24Zm2.15-.44v3.74H23.8v-1a2.42,2.42,0,0,1-.92.88,2.93,2.93,0,0,1-1.35.28,2.26,2.26,0,0,1-1.6-.56,2,2,0,0,1-.6-1.52,2,2,0,0,1,.75-1.67,3.65,3.65,0,0,1,2.21-.56H23.8v-.11a1.41,1.41,0,0,0-.49-1.15A2.07,2.07,0,0,0,21.94,45a4.48,4.48,0,0,0-1.1.14,4.24,4.24,0,0,0-1,.4v-1A5.87,5.87,0,0,1,21,44.23a5.27,5.27,0,0,1,1.09-.12,2.82,2.82,0,0,1,2.13.74,3.18,3.18,0,0,1,.7,2.24"/><path id="BitstreamVeraSans-Roman-6c" d="M27.1,41.71h1.08v9.12H27.1Z"/><path id="BitstreamVeraSans-Roman-66" d="M33.76,41.71v.9h-1a1.08,1.08,0,0,0-.8.24,1.19,1.19,0,0,0-.23.84v.58h1.78v.84H31.69v5.72H30.61V45.11h-1v-.84h1v-.46a2.14,2.14,0,0,1,.51-1.59,2.22,2.22,0,0,1,1.62-.51Z"/><path id="BitstreamVeraSans-Roman-79-2" data-name="BitstreamVeraSans-Roman-79" d="M37.18,51.44A4,4,0,0,1,36.29,53a1.77,1.77,0,0,1-1.16.36h-.86v-.91h.63a1,1,0,0,0,.69-.21,2.73,2.73,0,0,0,.55-1l.19-.49-2.65-6.46h1.14l2,5.13,2.05-5.13h1.14Z"/><path id="BitstreamVeraSans-Roman-65-3" data-name="BitstreamVeraSans-Roman-65" d="M47.16,47.28v.53H42.21a2.45,2.45,0,0,0,.67,1.69,2.28,2.28,0,0,0,1.67.59,4.4,4.4,0,0,0,1.2-.16,5.35,5.35,0,0,0,1.16-.45v1a6.3,6.3,0,0,1-1.19.37,5.71,5.71,0,0,1-1.23.13,3.16,3.16,0,0,1-3.41-3.39A3.62,3.62,0,0,1,42,45.06a3,3,0,0,1,2.35-1,2.7,2.7,0,0,1,2.09.85,3.3,3.3,0,0,1,.77,2.32M46.08,47a2,2,0,0,0-.49-1.41A1.66,1.66,0,0,0,44.31,45a2,2,0,0,0-1.44.51A2.14,2.14,0,0,0,42.24,47Z"/><path id="BitstreamVeraSans-Roman-61-3" data-name="BitstreamVeraSans-Roman-61" d="M51.92,47.53a3.87,3.87,0,0,0-1.82.3,1.1,1.1,0,0,0-.5,1,1.16,1.16,0,0,0,.38.91,1.46,1.46,0,0,0,1,.34,1.81,1.81,0,0,0,1.44-.64A2.5,2.5,0,0,0,53,47.77v-.24Zm2.15-.44v3.74H53v-1a2.49,2.49,0,0,1-.92.88,2.93,2.93,0,0,1-1.35.28,2.24,2.24,0,0,1-1.6-.56,2,2,0,0,1-.6-1.52,2,2,0,0,1,.74-1.67,3.67,3.67,0,0,1,2.21-.56H53v-.11a1.44,1.44,0,0,0-.49-1.15A2.12,2.12,0,0,0,51.12,45a4.4,4.4,0,0,0-1.09.14,4.31,4.31,0,0,0-1,.4v-1a6.17,6.17,0,0,1,1.15-.34,5.1,5.1,0,0,1,1.08-.12,2.82,2.82,0,0,1,2.13.74,3.14,3.14,0,0,1,.71,2.24"/><path id="BitstreamVeraSans-Roman-72" d="M60.09,45.28a1.4,1.4,0,0,0-.4-.16,2.26,2.26,0,0,0-.47,0,1.69,1.69,0,0,0-1.4.6,2.57,2.57,0,0,0-.49,1.7v3.46H56.24V44.27h1.09v1a2.22,2.22,0,0,1,.88-.89,2.87,2.87,0,0,1,1.33-.29l.24,0,.3,0Z"/></g></g><path class="cls-11" d="M63,194.4H453.6"/><text class="cls-12" transform="translate(333.73 52.82)"><tspan class="cls-13">N</tspan><tspan x="9.31" y="0">o </tspan><tspan class="cls-14" x="19.97" y="0">i</tspan><tspan class="cls-15" x="23.56" y="0">s</tspan><tspan class="cls-16" x="29.3" y="0">sue </tspan><tspan class="cls-17" x="52.49" y="0">f</tspan><tspan class="cls-18" x="56.6" y="0">ound</tspan></text><text class="cls-12" transform="translate(219.97 52.82)">1 <tspan class="cls-14" x="7.88" y="0">i</tspan><tspan class="cls-19" x="11.47" y="0">s</tspan><tspan x="17.21" y="0">sue </tspan><tspan class="cls-20" x="40.41" y="0">f</tspan><tspan x="44.51" y="0">ound</tspan></text><text class="cls-12" transform="translate(180.47 52.82)">2</text><text class="cls-21" transform="translate(142.9 52.82)">3</text><text class="cls-21" transform="translate(112.4 52.82)">4</text><text class="cls-21" transform="translate(78.4 52.82)">5</text></g></g></svg>